<?xml version="1.0" encoding="UTF-8"?>
<svg width="220px" height="85px" viewBox="0 0 220 85" version="1.1" xmlns="http://www.w3.org/2000/svg" xmlns:xlink="http://www.w3.org/1999/xlink">
    <title>Logo/UW-Superior</title>
    <defs>
        <polygon id="path-1" points="-2.40052481e-14 0 170.023289 0 170.023289 57.2995415 -2.40052481e-14 57.2995415"></polygon>
    </defs>
    <g id="Logo/UW-Superior" stroke="none" stroke-width="1" fill="none" fill-rule="evenodd">
        <path d="M200.948522,60.4827455 C203.929994,64.2404135 207.054627,55.128343 208.662341,61.4844524 C214.332627,62.7775497 211.480381,69.7324873 213.706772,73.3309464 L212.974918,77.653236 L212.183096,76.7157193 C210.735858,77.7583899 209.311001,75.2912853 208.013681,75.5476243 C206.134002,71.3482254 200.186684,76.1105566 199.166396,70.3110449 C198.046866,70.363833 198.493242,71.901867 196.972944,71.3887667 C196.945917,70.8051415 197.309944,70.5931445 197.487312,70.3904382 L196.508409,69.4617899 L194.706857,70.9107177 C195.070461,70.6982984 195.248252,70.4955921 195.230093,70.1066494 C194.597058,68.5770614 193.150241,69.6197319 192.99061,70.2113809 C188.83133,69.2375461 187.448282,71.641305 183.42963,69.6864561 L183.961734,69.076648 L182.992122,68.3422599 C182.628518,68.5546793 182.301231,69.5445617 181.723518,69.1818019 C181.750546,69.7654271 183.729889,68.1129484 182.919908,66.7869114 C180.707875,67.4756905 177.903772,63.5144716 177.554526,68.0132845 L177.600134,68.9858524 L180.772066,68.8367789 C180.435489,69.6319788 179.529645,70.2595237 179.948149,71.2139325 C178.551165,69.3308755 176.526213,70.0107862 174.474234,70.1070717 L176.030428,71.3984797 L170.974172,71.2460277 C171.675198,70.2388308 173.73689,70.3368055 173.103433,68.8076398 L172.124953,67.8789916 C171.451799,69.4693914 170.387591,70.6890077 168.662476,69.795833 C168.821685,69.2033394 168.066182,69.0441305 167.665837,68.4782421 L166.964811,69.485439 L167.757054,70.4225333 C166.778152,69.4943074 165.471963,69.5555416 164.147615,69.2282554 C163.597352,69.4486985 163.811461,70.0234553 163.838911,70.6070805 C159.878536,65.9207643 154.778784,72.7870179 150.604723,67.5259448 C150.053615,67.7463879 150.267724,68.3211447 150.295596,68.9043476 C148.365663,67.6310987 148.396914,64.3160061 145.056483,64.8628908 C142.872745,66.1352951 146.108444,67.3473099 144.857155,68.5753722 C144.119811,68.8046837 143.887965,67.8414065 142.973253,68.2738466 C142.795885,68.4773975 142.431858,68.6898168 142.645545,69.2641513 L140.77938,69.3515684 L141.311906,68.7421826 L140.342717,68.0077945 C139.173777,70.9863102 137.069855,66.0174721 136.274655,68.9786733 C134.772939,68.8540933 132.751788,65.6357085 131.777953,68.8000383 C129.689656,68.1184384 127.759301,66.8447672 125.511372,66.7560831 C127.951872,70.9288768 122.030314,68.2839819 120.301398,71.2886805 C120.273948,70.7050552 120.433157,70.1129839 119.855444,69.7498018 C118.913282,69.5998836 118.576705,70.3950835 118.035311,70.8102091 C116.729122,70.8714433 114.444453,70.0044516 112.60616,70.6754939 C113.165714,70.6488887 113.343082,70.4457601 113.511582,70.0483713 C110.703677,69.9854479 107.336219,69.9487074 104.228056,71.4588693 L104.182447,70.4867237 L97.820425,70.3959281 L97.8022659,70.0069854 C95.0898022,67.9900577 91.5589119,72.4436841 90.0609968,68.4216532 C89.1374162,68.6598331 88.0727858,69.8790271 87.931736,70.8600411 L88.5098713,71.2232232 C87.9591858,71.4436663 87.577,71.2667206 86.2340708,70.5504917 C85.7112574,71.35456 84.8421542,72.759568 85.8206344,73.6882163 C82.4350169,73.2625331 82.3307076,75.0214325 79.7094617,74.9496407 C79.8686706,74.3575694 79.1038767,74.0041003 78.7124001,73.6324721 C77.0421847,73.9057033 78.6536998,76.3635171 76.0050041,75.7089447 C75.3082012,72.8178461 73.1421999,74.4791932 71.0441897,73.6029107 C70.9217214,74.9732898 70.9584619,75.7507529 68.8874792,75.4580957 C68.7101112,75.6612243 68.3553751,76.0679038 68.560193,76.4484004 L67.6273217,76.4918978 C67.9731893,75.8909581 68.7012428,75.4669641 68.4685528,74.5036868 C65.7104802,71.5146135 65.7890289,77.1629401 63.1492017,76.7022056 C60.2863975,75.4728763 58.0477598,75.5776079 55.5177318,77.450952 C55.6862314,77.0531409 55.3040456,76.8761951 55.1080962,76.690381 C52.782886,78.9437994 48.9145741,76.2021967 46.6349729,79.4273384 C44.5095128,77.967853 42.8574565,78.6304492 39.8084159,77.4091438 C36.2086899,76.409126 34.2166782,81.7652177 30.8893387,78.6080671 C30.2892436,81.7546601 26.7752455,78.6063779 26.1751504,81.7529709 C26.1751504,81.7529709 23.5082956,80.7090334 23.048828,82.8746124 L22.0703478,81.9455419 C18.6897979,85.6128367 12.691803,85.3100441 7.81333807,84.9544635 C4.15491167,86.6859131 4.04891317,80.4539613 0.849532072,80.0194097 C0.189469685,77.9066188 1.23594096,76.2984822 3.47500095,76.1933283 C40.1525943,68.8173528 80.0207004,61.6820911 117.441128,58.1697821 C146.138005,56.0417883 172.88299,56.149476 200.948522,60.4827455" id="Fill-1" fill="#FFD046"></path>
        <path d="M4.45863327,3.08848386 C4.45863327,2.47065195 4.4261158,2.04792485 4.31251582,1.86928992 C4.21496341,1.70670258 4.0198586,1.64166764 3.62964897,1.62562006 L2.84922972,1.5766327 L2.84922972,1.08887067 C3.69468391,1.12138814 4.45863327,1.13743572 5.25552241,1.13743572 C6.0034242,1.13743572 6.76737356,1.12138814 7.61282775,1.08887067 L7.61282775,1.5766327 L6.8324085,1.62562006 C6.44219887,1.64166764 6.24709406,1.70670258 6.14954165,1.86928992 C6.03551936,2.04792485 6.0034242,2.47065195 6.0034242,3.08848386 L6.0034242,8.6814885 C6.0034242,10.9898065 7.20614824,11.6566258 9.35230119,11.6566258 C11.1082445,11.6566258 12.7016005,10.9898065 12.7016005,8.29085657 L12.7016005,3.08848386 C12.7016005,2.47065195 12.6686607,2.04792485 12.5550607,1.86928992 C12.4575083,1.70670258 12.2624035,1.65771522 11.8721939,1.62562006 L11.1568096,1.5766327 L11.1568096,1.08887067 C11.8071589,1.10491825 12.4575083,1.13743572 13.0428228,1.13743572 C13.6931721,1.13743572 14.2784866,1.10491825 14.9938709,1.08887067 L14.9938709,1.5766327 L14.2784866,1.62562006 C13.8882769,1.65771522 13.6931721,1.70670258 13.5956197,1.86928992 C13.4820197,2.04792485 13.44908,2.47065195 13.44908,3.08848386 L13.44908,7.78704695 C13.44908,11.2664161 12.1323336,12.6646673 8.84849157,12.6646673 C6.08450672,12.6646673 4.45863327,11.8352607 4.45863327,8.86012343 L4.45863327,3.08848386 Z" id="Fill-3" fill="#000000"></path>
        <path d="M17.3327215,3.08848386 C17.3327215,2.47065195 17.300204,2.04792485 17.1861817,1.86928992 C17.0886293,1.70670258 16.8939468,1.65771522 16.5037372,1.62562006 L15.7883529,1.5766327 L15.7883529,1.08887067 C16.5037372,1.10491825 17.1540866,1.13743572 17.7389787,1.13743572 C18.0316359,1.13743572 18.3242932,1.10491825 18.6173727,1.08887067 L26.3882031,10.6806794 L26.4371905,10.6806794 L26.4371905,3.08848386 C26.4371905,2.47065195 26.404673,2.04792485 26.2906507,1.86928992 C26.1930983,1.70670258 25.9979935,1.65771522 25.6077839,1.62562006 L24.8923996,1.5766327 L24.8923996,1.08887067 C25.5427489,1.10491825 26.1930983,1.13743572 26.7784128,1.13743572 C27.4287621,1.13743572 28.0140766,1.10491825 28.7294609,1.08887067 L28.7294609,1.5766327 L28.0140766,1.62562006 C27.6238669,1.65771522 27.4287621,1.70670258 27.3312097,1.86928992 C27.2176097,2.04792485 27.1850923,2.47065195 27.1850923,3.08848386 L27.1850923,12.062883 C27.1850923,12.2579878 27.2176097,12.4691402 27.2336573,12.6646673 L25.7707935,12.4041052 L18.1131408,2.89337904 L18.0806233,2.89337904 L18.0806233,10.3884445 C18.0806233,11.0058541 18.1131408,11.4285812 18.2267407,11.6076384 C18.3242932,11.7702257 18.519398,11.8192131 18.9096076,11.8513083 L19.6249919,11.9002956 L19.6249919,12.3880576 C18.9096076,12.3715878 18.3242932,12.3390703 17.6743661,12.3390703 C17.0886293,12.3390703 16.43828,12.3715878 15.7883529,12.3880576 L15.7883529,11.9002956 L16.5037372,11.8513083 C16.8939468,11.8192131 17.0886293,11.7702257 17.1861817,11.6076384 C17.300204,11.4285812 17.3327215,11.0058541 17.3327215,10.3884445 L17.3327215,3.08848386 Z" id="Fill-5" fill="#000000"></path>
        <path d="M32.6369627,10.3882755 C32.6369627,11.0061075 32.6694801,11.4288345 32.7835024,11.6078918 C32.8810548,11.7700568 33.0761596,11.8350918 33.465947,11.8515616 L34.2467885,11.900549 L34.2467885,12.3878887 C33.4013343,12.3553713 32.6369627,12.3393237 31.8890609,12.3393237 C31.092594,12.3393237 30.3282224,12.3553713 29.4831905,12.3878887 L29.4831905,11.900549 L30.2631874,11.8515616 C30.6538194,11.8350918 30.8489242,11.7700568 30.9460543,11.6078918 C31.0600766,11.4288345 31.092594,11.0061075 31.092594,10.3882755 L31.092594,3.08831493 C31.092594,2.47048302 31.0600766,2.04775593 30.9460543,1.869121 C30.8489242,1.70653366 30.6538194,1.64149872 30.2631874,1.62545114 L29.4831905,1.57646378 L29.4831905,1.08870175 C30.3282224,1.12121922 31.092594,1.13768911 31.8890609,1.13768911 C32.6369627,1.13768911 33.4013343,1.12121922 34.2467885,1.08870175 L34.2467885,1.57646378 L33.465947,1.62545114 C33.0761596,1.64149872 32.8810548,1.70653366 32.7835024,1.869121 C32.6694801,2.04775593 32.6369627,2.47048302 32.6369627,3.08831493 L32.6369627,10.3882755 Z" id="Fill-7" fill="#000000"></path>
        <path d="M41.0735566,10.3719746 L44.0486939,2.68222665 C44.3903384,1.80425499 44.0486939,1.65771522 43.6259668,1.62562006 L42.7809349,1.5766327 L42.7809349,1.08887067 C43.365827,1.10491825 43.9346716,1.13743572 44.5364559,1.13743572 C45.1382402,1.13743572 45.7070848,1.10491825 46.2923992,1.08887067 L46.2923992,1.5766327 L45.8046372,1.62562006 C45.4634149,1.65771522 45.2518402,2.01540738 44.9266655,2.79582664 L42.0976457,9.64054268 C41.7078584,10.5670794 41.3497439,11.4940384 41.057509,12.4856101 L40.2445723,12.4856101 C39.9840102,11.5261336 39.6267404,10.5995969 39.3015657,9.80313002 L36.2449236,2.29201702 C36.0337712,1.77173752 35.806149,1.64166764 35.5295393,1.62562006 L34.9442249,1.5766327 L34.9442249,1.08887067 C35.6596092,1.10491825 36.3749935,1.13743572 37.1068477,1.13743572 C37.8382796,1.13743572 38.5536639,1.10491825 39.2690482,1.08887067 L39.2690482,1.5766327 L38.3585591,1.62562006 C38.049432,1.64166764 37.7242573,1.73922005 37.8707971,2.12942968 L41.0735566,10.3719746 Z" id="Fill-9" fill="#000000"></path>
        <path d="M48.642272,3.08848386 C48.642272,2.47065195 48.6097545,2.04792485 48.4957322,1.86928992 C48.3981798,1.70670258 48.203075,1.64166764 47.8132877,1.62562006 L47.0324461,1.5766327 L47.0324461,1.08887067 C47.9268877,1.10491825 48.8538467,1.13743572 49.7803834,1.13743572 C51.1946821,1.13743572 52.6904857,1.08887067 53.6170224,1.08887067 C54.3488766,1.08887067 55.0803085,1.10534056 55.7146103,1.13743572 C55.5355531,1.85282004 55.4540483,2.77935675 55.4540483,3.60876336 L54.8852037,3.60876336 L54.8852037,2.55215677 C54.8852037,2.34058207 54.8691561,2.16194714 54.7386639,2.11295979 C53.8771622,1.7877851 52.5929333,1.77173752 51.5523743,1.77173752 C51.1135996,1.77173752 50.6418852,1.7877851 50.1866406,1.90180739 L50.1866406,6.24267834 C50.7069201,6.2751958 51.2922345,6.29124339 52.0726538,6.29124339 C53.0642254,6.29124339 53.6170224,6.22620845 53.7960796,6.11260846 C53.8771622,6.04757352 53.9096796,5.90145606 53.9261495,5.68988136 L54.007232,4.84442717 L54.4949941,4.84442717 C54.4789465,5.51082413 54.446429,6.12865604 54.446429,6.73001806 C54.446429,7.33180239 54.4789465,7.9496343 54.4949941,8.53494874 L54.007232,8.53494874 L53.9261495,7.57547225 C53.9096796,7.36431986 53.8771622,7.2182024 53.7960796,7.16921505 C53.6170224,7.03914517 53.0642254,6.97411023 52.0726538,6.97411023 C51.2922345,6.97411023 50.6908725,6.97411023 50.1866406,7.02309759 L50.1866406,11.5751209 C50.6418852,11.6891432 51.1135996,11.7051908 51.5523743,11.7051908 C52.8855905,11.7051908 54.5439814,11.6566258 54.8362163,11.4940384 C55.0803085,11.3639685 55.2918832,10.6485842 55.4054832,9.67306015 L55.9743278,9.67306015 C55.8117404,10.4534794 55.7146103,11.4615209 55.7146103,12.3390703 C54.999226,12.3555402 53.7145748,12.4041052 52.5118508,12.3880576 C51.2597171,12.3715878 49.9754882,12.3390703 48.9674467,12.3390703 C48.3496148,12.3390703 47.8132877,12.3715878 47.2275509,12.3880576 L47.2275509,11.9002956 L47.8132877,11.8513083 C48.203075,11.8192131 48.3981798,11.7702257 48.4957322,11.6076384 C48.6097545,11.4285812 48.642272,11.0058541 48.642272,10.3884445 L48.642272,3.08848386 Z" id="Fill-11" fill="#000000"></path>
        <path d="M59.7663292,10.3882755 C59.7663292,11.0061075 59.7988466,11.4288345 59.9124466,11.6078918 C60.0104213,11.7700568 60.2051038,11.8350918 60.5953135,11.8515616 L61.3757327,11.900549 L61.3757327,12.3878887 C60.5302785,12.3553713 59.7663292,12.3393237 59.0184274,12.3393237 C58.2219605,12.3393237 57.4575889,12.3553713 56.6121347,12.3878887 L56.6121347,11.900549 L57.3925539,11.8515616 C57.7827636,11.8350918 57.9778684,11.7700568 58.0754208,11.6078918 C58.1894431,11.4288345 58.2219605,11.0061075 58.2219605,10.3882755 L58.2219605,3.08831493 C58.2219605,2.47048302 58.1894431,2.04775593 58.0754208,1.869121 C57.9778684,1.70653366 57.7827636,1.65796861 57.3925539,1.62545114 L56.726157,1.57646378 L56.726157,1.08870175 C57.5876587,1.10517164 58.5306653,1.13768911 59.4897195,1.13768911 C60.449196,1.13768911 61.3922026,1.10517164 62.3352092,1.08870175 C64.9361844,1.0401367 65.6190513,2.35688304 65.6190513,3.52751192 C65.6190513,5.29950282 64.0256953,6.35653171 62.4488092,6.66523651 L66.1393308,11.4778219 C66.3834229,11.8029966 66.7411151,11.8676092 67.1309024,11.900549 L67.1309024,12.3878887 C66.7081753,12.3718411 66.3344356,12.3393237 65.9602735,12.3393237 C65.5865338,12.3393237 65.2288416,12.3718411 64.8551019,12.3878887 C64.6435272,12.0791839 64.3998573,11.8029966 64.1882826,11.5103394 L61.1970978,7.49422081 C60.9365357,7.13695096 60.6278309,6.82782385 60.3516436,6.48660158 L60.449196,6.29149677 C60.8879707,6.32359193 61.3922026,6.30754435 61.8795423,6.22646183 C63.018076,6.03135702 63.9931778,5.15338536 63.9931778,3.95023901 C63.9931778,2.19429569 62.6929014,1.70653366 61.4247201,1.70653366 C60.6928659,1.70653366 60.2215737,1.78803848 59.7663292,1.90163847 L59.7663292,10.3882755 Z" id="Fill-13" fill="#000000"></path>
        <path d="M74.0731286,3.7876939 L73.9755762,2.86115719 C73.9265889,2.4219602 73.8615539,2.25937286 73.2601919,1.88563312 C72.8049473,1.60902348 72.1220805,1.49542349 71.488201,1.49542349 C70.3500896,1.49542349 69.0819083,2.25937286 69.0819083,3.86877642 C69.0819083,4.97437036 69.7322577,5.6572372 71.7643883,5.88485949 C74.057081,6.12895166 75.5038973,6.69779621 75.5038973,8.55129193 C75.5038973,11.3313244 73.016522,12.6645406 70.5937595,12.6645406 C69.455648,12.6645406 68.3504764,12.3068484 67.813727,12.0467087 C67.9437969,11.2012545 67.9437969,10.3232828 67.9277493,9.55933347 L68.4480288,9.55933347 L68.5780987,10.6484575 C68.6591812,11.3313244 69.9434101,11.9491563 71.2280613,11.9491563 C72.6913474,11.9491563 74.1381636,11.055137 74.1381636,9.44531118 C74.1381636,7.90094256 72.9350172,7.46216788 71.2766263,7.26664076 C68.7242161,6.97398354 67.7161746,6.17751671 67.7161746,4.48660833 C67.7161746,1.96671564 69.9273625,0.812556647 71.8784106,0.812556647 C73.1786871,0.812556647 74.1542111,1.23528374 74.8210304,1.49542349 C74.6584431,2.3244078 74.5934081,3.02374453 74.5934081,3.7876939 L74.0731286,3.7876939 Z" id="Fill-15" fill="#000000"></path>
        <path d="M79.1432777,10.3882755 C79.1432777,11.0061075 79.1757952,11.4288345 79.2893952,11.6078918 C79.3873699,11.7700568 79.5820524,11.8350918 79.972262,11.8515616 L80.7526813,11.900549 L80.7526813,12.3878887 C79.9072271,12.3553713 79.1432777,12.3393237 78.3953759,12.3393237 C77.5989091,12.3393237 76.8345374,12.3553713 75.9890832,12.3878887 L75.9890832,11.900549 L76.7695025,11.8515616 C77.1597121,11.8350918 77.3548169,11.7700568 77.4523693,11.6078918 C77.5663916,11.4288345 77.5989091,11.0061075 77.5989091,10.3882755 L77.5989091,3.08831493 C77.5989091,2.47048302 77.5663916,2.04775593 77.4523693,1.869121 C77.3548169,1.70653366 77.1597121,1.64149872 76.7695025,1.62545114 L75.9890832,1.57646378 L75.9890832,1.08870175 C76.8345374,1.12121922 77.5989091,1.13768911 78.3953759,1.13768911 C79.1432777,1.13768911 79.9072271,1.12121922 80.7526813,1.08870175 L80.7526813,1.57646378 L79.972262,1.62545114 C79.5820524,1.64149872 79.3873699,1.70653366 79.2893952,1.869121 C79.1757952,2.04775593 79.1432777,2.47048302 79.1432777,3.08831493 L79.1432777,10.3882755 Z" id="Fill-17" fill="#000000"></path>
        <path d="M85.6135361,3.51121095 C85.6135361,2.89337904 85.5970662,2.37309954 85.5485012,1.88533751 L83.0286085,1.88533751 C82.5408464,1.88533751 82.4107766,2.03187727 82.3782591,2.4220869 L82.3132242,3.70631576 L81.8094145,3.70631576 C81.8094145,2.8283441 81.7768971,1.93432486 81.6953923,1.08887067 C82.8660211,1.08887067 84.03665,1.13743572 85.2072789,1.13743572 L87.5645842,1.13743572 C88.7352131,1.13743572 89.905842,1.08887067 91.0764709,1.08887067 C90.994966,1.93432486 90.9624486,2.8283441 90.9624486,3.70631576 L90.458639,3.70631576 L90.3931817,2.4220869 C90.3610866,2.03187727 90.2310167,1.88533751 89.7432546,1.88533751 L87.223362,1.88533751 C87.1743746,2.37309954 87.1579047,2.89337904 87.1579047,3.51121095 L87.1579047,10.3884445 C87.1579047,11.0058541 87.1904222,11.4285812 87.3044445,11.6076384 C87.4019969,11.7702257 87.5971017,11.8352607 87.9873113,11.8513083 L88.7677306,11.9002956 L88.7677306,12.3880576 C87.9222764,12.3555402 87.1579047,12.3390703 86.4104252,12.3390703 C85.6135361,12.3390703 84.8495867,12.3555402 84.0041325,12.3880576 L84.0041325,11.9002956 L84.7845518,11.8513083 C85.1747614,11.8352607 85.3698662,11.7702257 85.4674186,11.6076384 C85.5810186,11.4285812 85.6135361,11.0058541 85.6135361,10.3884445 L85.6135361,3.51121095 Z" id="Fill-19" fill="#000000"></path>
        <path d="M97.6077523,6.79539085 L99.2821908,4.14542828 C99.9325402,3.12091686 100.501807,2.09682775 101.038134,1.05626874 L102.338833,1.05626874 L102.338833,1.30036091 C100.973099,2.877247 99.0060035,5.62476197 98.3391842,7.07157818 C98.1440794,7.49430527 98.1115619,7.90098479 98.1115619,8.29119441 L98.1115619,10.38836 C98.1115619,11.0061919 98.1440794,11.428919 98.2581017,11.6079762 C98.3552318,11.7701413 98.5503366,11.8351762 98.9409685,11.8516461 L99.7209655,11.9002112 L99.7209655,12.3879732 C98.8755113,12.3554557 98.1115619,12.3389858 97.3636601,12.3389858 C96.5671933,12.3389858 95.8032439,12.3554557 94.9577897,12.3879732 L94.9577897,11.9002112 L95.7377867,11.8516461 C96.1284186,11.8351762 96.3231011,11.7701413 96.4206535,11.6079762 C96.5346758,11.428919 96.5671933,11.0061919 96.5671933,10.38836 L96.5671933,8.08004202 C96.5671933,7.81947996 96.5182059,7.59185768 96.4206535,7.42969264 L94.4049928,3.917806 C93.5595386,2.4545199 92.730132,1.85273558 92.3238748,1.80417053 L91.8525826,1.75518317 L91.8525826,1.28389102 L93.7221259,0.893681398 C94.0473006,0.82864646 94.2909705,1.15382115 94.5675801,1.49546572 C94.8437674,1.836688 95.0713897,2.16186268 95.2829644,2.55207231 L97.6077523,6.79539085 Z" id="Fill-21" fill="#000000"></path>
        <path d="M110.208863,10.941537 C111.037847,9.98248287 111.428057,8.04748232 111.428057,6.77972334 C111.428057,5.78772938 111.135399,4.69860533 109.916205,4.69860533 C109.574983,4.69860533 109.184351,4.76364027 108.924212,4.97479266 C107.93264,5.7716818 107.493865,8.21006966 107.493865,9.39716843 C107.493865,10.4377274 107.80257,11.4782864 109.021764,11.4782864 C109.509526,11.4782864 109.916205,11.2831816 110.208863,10.941537 M106.258201,9.49472084 C106.258201,7.31605042 107.103233,5.44650711 108.859177,4.53601799 C109.363409,4.27587823 109.851171,4.08077342 110.50152,4.08077342 C112.029419,4.08077342 112.66372,5.18636736 112.66372,6.58461852 C112.66372,7.93388233 112.126971,9.55975577 111.281517,10.6163624 C110.631168,11.4292991 109.444491,12.095696 108.387884,12.095696 C106.778059,12.095696 106.258201,10.9090196 106.258201,9.49472084" id="Fill-23" fill="#000000"></path>
        <path d="M115.734721,5.69013475 C115.360981,7.39709071 114.580562,11.2501996 114.141787,12.6974381 C113.735108,14.0141845 113.165841,14.9407212 112.499444,15.5425055 C111.995634,15.9977501 111.328815,16.4044296 110.710983,16.4044296 C110.548396,16.4044296 110.239691,16.3389723 110.142139,16.2739374 C110.239691,16.0953025 110.499831,15.1197784 110.515878,14.9732387 L110.743501,14.908626 C110.922558,15.1522959 111.149758,15.3799182 111.52392,15.3799182 C111.833047,15.3799182 112.434409,15.3959657 112.954688,13.9166321 C113.458498,12.4698159 114.483009,6.19436667 114.548044,5.69013475 L113.230876,5.69013475 L113.312381,5.33244259 C113.783673,5.16985525 114.238917,4.95870285 114.710632,4.73108057 L114.954302,3.4468517 C115.051854,2.95908967 115.133359,2.58492762 115.279476,2.2922704 C115.425594,1.96709571 115.556086,1.82097826 115.686156,1.67443849 C115.864791,1.47933368 117.263042,0.357692158 117.783321,0.113599989 C117.978426,0.0325174689 118.189579,0 118.352166,0 C118.644823,0 119.246185,0.0810825198 119.490277,0.211152395 C119.360208,0.569266858 119.148633,1.17062888 119.035033,1.54436862 L118.872445,1.60940356 C118.677341,1.2517114 118.173531,0.975524066 117.718286,0.975524066 C117.198007,0.975524066 116.856362,1.26818129 116.612693,1.73947343 C116.499093,1.96709571 116.352553,2.43881017 116.238531,2.99118483 L115.897308,4.81216309 C116.303988,4.81216309 116.807797,4.81216309 117.116502,4.77964562 C117.27909,4.76359804 117.441677,4.71461068 117.636782,4.66604563 L117.701817,4.77964562 C117.620734,4.97475043 117.490664,5.39747753 117.425629,5.69013475 L115.734721,5.69013475 Z" id="Fill-25" fill="#000000"></path>
        <path d="M130.065634,3.62502209 L127.237036,10.8109604 C127.025462,11.3637574 126.814309,11.9165543 126.6513,12.4853989 L125.838785,12.4853989 C125.724763,11.8840369 125.595115,11.3802273 125.464623,10.8109604 L123.530045,2.43834563 C123.367458,1.7390089 123.058753,1.65792638 122.717108,1.62540891 L122.262286,1.57642155 L122.262286,1.08908182 C122.944731,1.10512941 123.61155,1.13764688 124.310464,1.13764688 C125.009379,1.13764688 125.676198,1.10512941 126.359065,1.08908182 L126.359065,1.57642155 L125.676198,1.62540891 C125.253471,1.65792638 124.928296,1.7390089 125.139871,2.69848538 L126.749274,9.94945863 L126.781792,9.94945863 L128.781405,4.87673349 C129.285215,3.59250462 129.805917,2.29180587 130.244691,0.959011949 L130.764971,0.959011949 C130.911088,1.60936133 131.203745,2.35684081 131.431368,3.00719018 L133.95126,10.0630586 L133.983778,10.0630586 L136.113461,2.16173599 C136.211436,1.77152637 135.983813,1.67397396 135.365981,1.62540891 L134.715632,1.57642155 L134.715632,1.08908182 C135.284477,1.10512941 135.837274,1.13764688 136.422588,1.13764688 C137.008325,1.13764688 137.560699,1.10512941 138.129544,1.08908182 L138.129544,1.57642155 L137.609264,1.62540891 C137.251995,1.65792638 137.072937,1.82051372 136.991433,2.09670105 L134.50448,10.8434779 C134.373987,11.3151923 134.19493,11.8190019 134.065283,12.4853989 L133.252346,12.4853989 C132.894231,11.20117 132.504022,10.2585857 132.097765,9.13652191 L130.065634,3.62502209 Z" id="Fill-27" fill="#000000"></path>
        <path d="M141.972644,10.3882755 C141.972644,11.0061075 142.005162,11.4288345 142.119184,11.6078918 C142.216736,11.7700568 142.411841,11.8350918 142.801629,11.8515616 L143.58247,11.900549 L143.58247,12.3878887 C142.737016,12.3553713 141.972644,12.3393237 141.224742,12.3393237 C140.428276,12.3393237 139.663904,12.3553713 138.818872,12.3878887 L138.818872,11.900549 L139.598869,11.8515616 C139.989501,11.8350918 140.184606,11.7700568 140.281736,11.6078918 C140.395758,11.4288345 140.428276,11.0061075 140.428276,10.3882755 L140.428276,3.08831493 C140.428276,2.47048302 140.395758,2.04775593 140.281736,1.869121 C140.184606,1.70653366 139.989501,1.64149872 139.598869,1.62545114 L138.818872,1.57646378 L138.818872,1.08870175 C139.663904,1.12121922 140.428276,1.13768911 141.224742,1.13768911 C141.972644,1.13768911 142.737016,1.12121922 143.58247,1.08870175 L143.58247,1.57646378 L142.801629,1.62545114 C142.411841,1.64149872 142.216736,1.70653366 142.119184,1.869121 C142.005162,2.04775593 141.972644,2.47048302 141.972644,3.08831493 L141.972644,10.3882755 Z" id="Fill-29" fill="#000000"></path>
        <path d="M150.93222,3.7876939 L150.834668,2.86115719 C150.785681,2.4219602 150.721068,2.25937286 150.119284,1.88563312 C149.664039,1.60902348 148.981172,1.49542349 148.347293,1.49542349 C147.209181,1.49542349 145.941,2.25937286 145.941,3.86877642 C145.941,4.97437036 146.591349,5.6572372 148.62348,5.88485949 C150.916173,6.12895166 152.362989,6.69779621 152.362989,8.55129193 C152.362989,11.3313244 149.875192,12.6645406 147.453274,12.6645406 C146.31474,12.6645406 145.209568,12.3068484 144.673241,12.0467087 C144.802889,11.2012545 144.802889,10.3232828 144.786841,9.55933347 L145.307121,9.55933347 L145.436768,10.6484575 C145.518273,11.3313244 146.802924,11.9491563 148.087153,11.9491563 C149.550439,11.9491563 150.997255,11.055137 150.997255,9.44531118 C150.997255,7.90094256 149.794109,7.46216788 148.13614,7.26664076 C145.583308,6.97398354 144.575266,6.17751671 144.575266,4.48660833 C144.575266,1.96671564 146.786877,0.812556647 148.737502,0.812556647 C150.038201,0.812556647 151.013303,1.23528374 151.680122,1.49542349 C151.517535,2.3244078 151.452078,3.02374453 151.452078,3.7876939 L150.93222,3.7876939 Z" id="Fill-31" fill="#000000"></path>
        <path d="M163.324206,11.7865689 C162.381199,12.3554135 160.771795,12.6645406 159.779801,12.6645406 C155.878127,12.6645406 153.244212,10.4373051 153.244212,6.74636126 C153.244212,4.87681795 153.976067,3.39748427 155.227778,2.37297285 C156.446972,1.36535362 158.105363,0.812556647 159.926341,0.812556647 C161.438192,0.812556647 162.901478,1.20276627 163.681898,1.47895361 C163.51931,2.24332528 163.372771,3.10482705 163.372771,3.95028124 L162.868961,3.95028124 L162.868961,2.77965236 C162.868961,2.3244078 162.218612,2.04779816 161.47071,1.77161083 C160.950853,1.5929759 160.251516,1.49542349 159.649732,1.49542349 C156.593089,1.49542349 154.984108,3.72265896 154.984108,6.48664381 C154.984108,9.70545093 157.113791,11.7865689 160.333021,11.7865689 C161.503227,11.7865689 162.885431,11.3638418 163.63291,10.8110449 L163.779028,10.9736322 L163.324206,11.7865689 Z" id="Fill-33" fill="#000000"></path>
        <path d="M165.930206,6.14504147 C165.930206,8.99010884 167.263422,11.981716 170.482229,11.981716 C173.197649,11.981716 174.514396,9.8680805 174.514396,6.87647337 C174.514396,3.65766625 173.067579,1.49546572 170.043455,1.49546572 C167.214857,1.49546572 165.930206,3.47860902 165.930206,6.14504147 M164.190733,6.74640349 C164.190733,3.3975265 166.53199,0.812176573 170.303595,0.812176573 C173.782964,0.812176573 176.254291,2.76364701 176.254291,6.37266375 C176.254291,9.8680805 173.522402,12.6645828 169.962372,12.6645828 C166.661638,12.6645828 164.190733,10.38836 164.190733,6.74640349" id="Fill-35" fill="#000000"></path>
        <path d="M177.745238,3.08848386 C177.745238,2.47065195 177.713143,2.04792485 177.598699,1.86928992 C177.501569,1.70670258 177.306464,1.65771522 176.916254,1.62562006 L176.20087,1.5766327 L176.20087,1.08887067 C176.916254,1.10491825 177.566603,1.13743572 178.151496,1.13743572 C178.444153,1.13743572 178.737232,1.10491825 179.029467,1.08887067 L186.80072,10.6806794 L186.849707,10.6806794 L186.849707,3.08848386 C186.849707,2.47065195 186.817612,2.04792485 186.703168,1.86928992 C186.606038,1.70670258 186.410933,1.65771522 186.020723,1.62562006 L185.304916,1.5766327 L185.304916,1.08887067 C185.955266,1.10491825 186.606038,1.13743572 187.191352,1.13743572 C187.841279,1.13743572 188.427016,1.10491825 189.141978,1.08887067 L189.141978,1.5766327 L188.427016,1.62562006 C188.036384,1.65771522 187.841279,1.70670258 187.744149,1.86928992 C187.630127,2.04792485 187.597609,2.47065195 187.597609,3.08848386 L187.597609,12.062883 C187.597609,12.2579878 187.630127,12.4691402 187.646174,12.6646673 L186.18331,12.4041052 L178.52608,2.89337904 L178.49314,2.89337904 L178.49314,10.3884445 C178.49314,11.0058541 178.52608,11.4285812 178.63968,11.6076384 C178.737232,11.7702257 178.932337,11.8192131 179.322125,11.8513083 L180.037931,11.9002956 L180.037931,12.3880576 C179.322125,12.3715878 178.737232,12.3390703 178.086883,12.3390703 C177.501569,12.3390703 176.851219,12.3715878 176.20087,12.3880576 L176.20087,11.9002956 L176.916254,11.8513083 C177.306464,11.8192131 177.501569,11.7702257 177.598699,11.6076384 C177.713143,11.4285812 177.745238,11.0058541 177.745238,10.3884445 L177.745238,3.08848386 Z" id="Fill-37" fill="#000000"></path>
        <path d="M195.915493,3.7876939 L195.817941,2.86115719 C195.768953,2.4219602 195.703919,2.25937286 195.102557,1.88563312 C194.647312,1.60902348 193.964445,1.49542349 193.330566,1.49542349 C192.192454,1.49542349 190.924695,2.25937286 190.924695,3.86877642 C190.924695,4.97437036 191.574622,5.6572372 193.606753,5.88485949 C195.899023,6.12895166 197.346262,6.69779621 197.346262,8.55129193 C197.346262,11.3313244 194.858887,12.6645406 192.436124,12.6645406 C191.298013,12.6645406 190.192419,12.3068484 189.656092,12.0467087 C189.786162,11.2012545 189.786162,10.3232828 189.770114,9.55933347 L190.290393,9.55933347 L190.420463,10.6484575 C190.501968,11.3313244 191.785775,11.9491563 193.070426,11.9491563 C194.533712,11.9491563 195.980528,11.055137 195.980528,9.44531118 C195.980528,7.90094256 194.777804,7.46216788 193.118991,7.26664076 C190.566581,6.97398354 189.558539,6.17751671 189.558539,4.48660833 C189.558539,1.96671564 191.770149,0.812556647 193.720775,0.812556647 C195.021052,0.812556647 195.996576,1.23528374 196.663817,1.49542349 C196.500808,2.3244078 196.435773,3.02374453 196.435773,3.7876939 L195.915493,3.7876939 Z" id="Fill-39" fill="#000000"></path>
        <path d="M201.196795,10.3882755 C201.196795,11.0061075 201.229312,11.4288345 201.343335,11.6078918 C201.440887,11.7700568 201.635569,11.8350918 202.025779,11.8515616 L202.806198,11.900549 L202.806198,12.3878887 C201.960744,12.3553713 201.196795,12.3393237 200.448893,12.3393237 C199.652426,12.3393237 198.888054,12.3553713 198.0426,12.3878887 L198.0426,11.900549 L198.823442,11.8515616 C199.213229,11.8350918 199.408756,11.7700568 199.505886,11.6078918 C199.619909,11.4288345 199.652426,11.0061075 199.652426,10.3882755 L199.652426,3.08831493 C199.652426,2.47048302 199.619909,2.04775593 199.505886,1.869121 C199.408756,1.70653366 199.213229,1.64149872 198.823442,1.62545114 L198.0426,1.57646378 L198.0426,1.08870175 C198.888054,1.12121922 199.652426,1.13768911 200.448893,1.13768911 C201.196795,1.13768911 201.960744,1.12121922 202.806198,1.08870175 L202.806198,1.57646378 L202.025779,1.62545114 C201.635569,1.64149872 201.440887,1.70653366 201.343335,1.869121 C201.229312,2.04775593 201.196795,2.47048302 201.196795,3.08831493 L201.196795,10.3882755 Z" id="Fill-41" fill="#000000"></path>
        <path d="M205.274232,3.08848386 C205.274232,2.47065195 205.241714,2.04792485 205.127692,1.86928992 C205.030562,1.70670258 204.835035,1.65771522 204.444825,1.62562006 L203.729441,1.5766327 L203.729441,1.08887067 C204.444825,1.10491825 205.095175,1.13743572 205.680489,1.13743572 C205.973146,1.13743572 206.266226,1.10491825 206.558461,1.08887067 L214.329291,10.6806794 L214.378701,10.6806794 L214.378701,3.08848386 C214.378701,2.47065195 214.345761,2.04792485 214.232161,1.86928992 C214.134609,1.70670258 213.939504,1.65771522 213.549717,1.62562006 L212.83391,1.5766327 L212.83391,1.08887067 C213.484259,1.10491825 214.134609,1.13743572 214.719923,1.13743572 C215.370273,1.13743572 215.955587,1.10491825 216.670971,1.08887067 L216.670971,1.5766327 L215.955587,1.62562006 C215.564955,1.65771522 215.370273,1.70670258 215.27272,1.86928992 C215.158698,2.04792485 215.12618,2.47065195 215.12618,3.08848386 L215.12618,12.062883 C215.12618,12.2579878 215.158698,12.4691402 215.175168,12.6646673 L213.711459,12.4041052 L206.054651,2.89337904 L206.021711,2.89337904 L206.021711,10.3884445 C206.021711,11.0058541 206.054651,11.4285812 206.168251,11.6076384 C206.266226,11.7702257 206.460908,11.8192131 206.850696,11.8513083 L207.566502,11.9002956 L207.566502,12.3880576 C206.850696,12.3715878 206.266226,12.3390703 205.615454,12.3390703 C205.030562,12.3390703 204.380213,12.3715878 203.729441,12.3880576 L203.729441,11.9002956 L204.444825,11.8513083 C204.835035,11.8192131 205.030562,11.7702257 205.127692,11.6076384 C205.241714,11.4285812 205.274232,11.0058541 205.274232,10.3884445 L205.274232,3.08848386 Z" id="Fill-43" fill="#000000"></path>
        <path d="M162.278325,15.0577418 C162.418953,15.4433061 161.902897,15.7781938 161.94935,16.1882518 C161.035905,16.9281298 160.928639,18.0611735 159.972541,18.7921831 L159.760544,19.3694738 L159.84585,19.3876329 C159.318391,19.9868834 159.064164,20.5557279 158.681978,21.0971227 C158.600473,21.4801531 158.199706,21.4835315 158.051477,21.7635196 C157.833568,22.161753 157.344116,22.3691047 157.482632,22.976379 C157.084821,23.380947 157.213624,24.0312963 156.682365,24.2293573 C156.072979,23.1216518 155.569169,21.7250899 156.105074,20.460287 C156.064955,20.2292863 156.231343,19.864415 156.337764,19.5759808 C156.251614,18.9349221 156.879581,18.4902352 157.124518,17.9644657 C158.151985,16.2706012 159.620761,15.4268362 161.119521,14.2329806 C161.439206,14.6122103 162.55958,14.3613612 162.278325,15.0577418" id="Fill-45" fill="#000000"></path>
        <path d="M29.2962361,58.608768 L29.2599179,58.7785345 C27.9756891,59.1729672 26.5119807,59.5733121 25.2851852,60.1134399 C20.7242935,61.2777343 16.1080798,62.0758903 11.2004759,61.5218264 C11.7862126,61.0678488 12.0041219,60.6700377 12.4289605,60.137089 C11.9994765,59.6459485 12.6067508,59.5082772 12.8922289,59.2130861 C14.7039164,58.219403 17.0071667,58.2645896 18.7762015,57.262038 C20.1263099,57.8156796 20.984011,56.7083964 22.2450131,56.8431116 C23.8273891,56.512447 25.3464194,56.4795072 26.9866512,56.2945377 C28.8574615,56.0698716 30.7747252,56.2552634 32.3908857,55.9756976 C33.253232,55.8920813 34.0889732,55.9368456 34.9576542,56.0318641 C33.1881971,57.034838 31.2848694,57.8304602 29.2962361,58.608768 M40.251667,38.7710004 C33.3034863,34.8482112 24.9642336,33.075798 17.0582656,30.7282057 C15.9459148,30.3139247 14.7727521,29.9752363 14.0235834,29.1048661 C14.0624354,28.7129672 14.4057692,28.5634713 14.4872741,28.1804409 C15.9560501,27.3366759 17.4949288,26.373821 18.9945331,25.8032872 C20.8682994,25.3569111 22.649581,24.0899967 24.5638887,24.4970985 C30.576242,22.5730779 36.8436674,20.7035346 43.2779032,20.5591063 C43.9185395,20.4729562 44.6846004,20.6359658 45.282584,20.5405249 C46.4895311,20.9307346 47.5034849,20.3458424 48.758997,20.9239777 C49.4524215,21.4269427 50.9043054,21.2909606 50.8215336,22.5186006 C51.0778726,23.1955552 50.431324,23.7251254 50.6450102,24.3932115 C51.0833626,24.8421215 51.7151306,24.7986241 52.2375216,24.6427937 C52.5563617,24.3991238 52.6619379,24.1102673 52.8709788,23.7546867 C53.005694,22.4936846 53.3376256,21.1410423 52.4030651,20.0975272 C52.4537416,19.4412656 51.6053313,19.0388091 51.5103127,18.4404032 C51.3882667,17.9695334 50.6982206,17.8673356 50.490869,17.378729 C50.1728735,16.1548897 48.7940483,16.5733937 47.8092336,16.1861402 C47.8362611,16.0586042 47.6842313,15.9374027 47.5900574,15.9618964 C39.6427035,15.6954221 31.5374077,17.8411527 24.1132895,20.1321562 C19.9996185,21.7035523 15.4991163,22.7926764 12.0885828,25.4472843 C12.1531955,25.7720367 11.8280208,25.8366493 11.6552981,26.0220411 C11.4821532,26.2074329 11.598287,26.4992455 11.3584179,26.581595 C11.1603569,28.1403219 11.3453264,29.7805538 11.9614691,31.0677388 C13.3529634,33.0977579 15.9404248,34.3148403 18.2685912,35.0766781 L18.2597227,35.1189086 C19.6972483,35.4689993 20.8197344,36.4639494 22.2690844,36.5496772 C24.9933726,37.7511344 27.8954512,38.3233574 30.6826628,39.2270896 C35.4487946,40.8630984 40.3310603,42.7900751 43.7855135,46.4147171 C44.3775848,48.2306277 42.8914943,49.7825979 41.9303286,50.9566052 C41.7124193,51.3548386 41.1900283,51.5106691 41.0481339,51.9697144 C40.5591049,52.177066 40.3323272,52.6179522 39.8952418,52.7923641 C39.1853474,53.6196592 38.2596553,54.0010004 37.3732376,54.6124977 C35.0332467,54.115445 32.484215,53.9735506 30.1235312,53.7830911 C20.2069701,53.3654317 10.5860224,53.8548829 1.46339432,57.6522476 C0.424102226,57.5204885 0.818112596,58.8047174 0.0224903704,58.9913761 C-0.137563145,59.5353047 0.609916334,59.7831976 0.586689571,60.3119232 C-0.0560583206,61.2422606 1.53983148,61.8930323 0.921999574,62.9179661 C1.00181518,63.3799675 1.47352963,63.8799764 1.98029538,63.5877415 C2.87769306,64.1785459 4.01073681,64.2862336 4.97781478,64.7587926 C6.99643168,65.7212253 8.88202257,65.010064 10.8609428,65.7423405 C11.5045353,65.434058 12.3343642,65.92182 13.0966244,65.6836401 C13.40364,65.7047554 13.8500161,65.488113 14.0869291,65.6274736 C14.1722347,65.6456327 14.241915,65.5269651 14.2934362,65.493603 C15.5455699,65.670971 16.7668753,65.5742632 17.9117436,65.4175881 C18.8040736,64.9847257 19.7863546,65.5936892 20.6208288,65.0151316 C23.0114963,64.856345 25.2708269,64.2693414 27.597304,63.7853801 C28.6606674,64.0117355 29.8870405,63.4720299 30.7282717,63.0721073 L30.7616338,63.1236285 C31.1860501,62.5919468 31.9402864,63.0188969 32.4314269,62.5898352 C32.9267904,62.5615408 33.3702105,62.5670308 33.8410803,62.4445624 C35.0277568,61.6738561 36.543831,61.8630487 37.553984,60.876967 C38.1946204,60.7908168 39.1089103,60.6738384 39.6186321,60.1594712 C39.862302,60.4783113 40.2204165,60.4652198 40.621606,60.4618414 C40.9738082,60.270115 41.3167197,60.1201968 41.2702662,59.7097166 L41.5684134,59.7734846 L41.6047316,59.6032958 L43.4345782,58.5251516 C43.5017247,58.6277717 43.5777396,58.6890059 43.7052756,58.7156111 C45.2386643,58.1965985 45.8193334,56.7193763 47.2125169,55.8147995 C47.4033986,55.5441021 47.4333823,55.1944337 47.6914105,55.027201 C48.9887308,53.5242183 49.5199903,51.2357486 48.5600915,49.47516 C47.9507057,44.8099589 44.0684577,41.3166537 40.251667,38.7710004" id="Fill-47" fill="#000000"></path>
        <g id="Group-51" transform="translate(49.976711, 23.960008)">
            <mask id="mask-2" fill="white">
                <use xlink:href="#path-1"></use>
            </mask>
            <g id="Clip-50"></g>
            <path d="M120.557209,9.52842357 C120.386598,10.9596145 119.819865,11.9507638 119.438946,13.1150582 C118.920355,13.6716559 118.815624,14.5834119 118.287743,15.1830847 C118.318149,16.9234028 116.52082,15.963504 115.549096,15.9347872 C114.81682,15.8237211 113.828627,15.6581776 113.89155,14.7375532 C114.028377,13.254841 115.309227,12.4596411 115.701971,11.0314063 C116.447339,10.0335001 116.718881,8.75687272 117.540263,7.82020069 C117.29955,7.27965056 118.140781,6.88015023 117.186372,6.76655024 C117.498877,6.34340084 118.08208,6.11197781 118.485381,5.88646706 C119.404739,6.79315544 120.737111,8.05457985 120.557209,9.52842357 M111.995401,24.3399195 C111.581543,22.5176743 112.00427,20.7397711 112.538908,18.852491 C112.725989,18.1806041 113.086215,17.3233254 113.401254,16.6788883 C114.544855,17.3668228 115.512778,18.4618591 116.986199,18.6417609 C115.570634,20.6975407 114.322723,23.0113486 111.995401,24.3399195 M61.8986511,12.2788947 C62.8982465,10.7129885 63.6123639,9.26786151 64.7492084,7.68633007 C65.1715132,6.4722038 65.9177258,6.51485658 66.2272752,6.3138395 C66.7703591,5.85099345 67.0655502,5.56889385 67.8096512,5.41559721 C66.5440038,10.6690688 63.0937736,14.4909272 60.26222,17.9800093 C60.3901784,16.53995 61.3483879,14.0297703 61.8986511,12.2788947 M37.0945792,26.991149 L36.9940707,26.8361631 C39.4683544,20.4251541 42.132253,14.587635 47.0187418,9.80081016 C48.268764,8.73280134 49.7852605,7.45406244 51.434783,7.22644016 C51.8034551,7.79401779 51.1273451,8.67325637 50.9491325,9.30249051 C47.3447611,16.0070014 42.01992,21.8124253 37.0945792,26.991149 M167.855768,5.95403582 C163.027135,10.8865558 157.788021,15.2426297 151.890957,18.9251275 C148.482535,20.7355481 144.436855,23.0328862 140.268285,22.7689457 C138.987434,22.0966364 139.264466,20.376589 139.475196,19.1763988 C140.627666,16.264185 142.160633,13.6547637 143.912775,11.2704308 C144.547499,11.0052234 144.761608,10.2058005 144.973183,9.6280875 C144.396314,7.94900365 143.401786,6.98150338 142.275077,5.58578604 C142.118402,4.44091776 141.537311,3.82815351 140.648781,3.19469632 C139.724779,2.73142797 138.740808,2.96707404 138.027113,3.39360188 C134.011417,7.43168028 129.922662,11.1872368 124.960159,13.8232633 L124.643852,13.8448008 C124.831356,13.1733362 125.083049,12.826624 125.185247,12.136578 C125.782386,11.4186598 125.580524,10.4866331 125.803501,9.64455739 C125.243525,8.72477755 126.04337,7.47179924 125.388376,6.57693539 C125.300114,4.69049989 123.130312,4.22934306 122.147186,2.99747998 C121.402241,2.52745475 120.827062,2.09417004 120.185158,1.55742065 C119.310987,1.90539979 118.266628,0.749551583 117.639927,1.81671579 C114.595954,3.79352451 112.540597,6.55835398 111.440915,10.0601053 C107.686626,14.3317183 103.647703,18.8981 99.4736421,22.6359197 C98.2688065,23.4915092 97.3258,24.5806332 96.0508618,24.9324131 L96.4330476,22.9235092 C97.289904,21.1933265 97.9182936,19.2815527 98.8178028,17.5602384 C100.702127,14.1366134 102.500723,10.6944071 104.071697,7.07060969 C104.71909,7.16393905 104.678126,6.31003876 104.70811,5.9607927 C104.473309,5.5997221 103.953874,5.53342025 103.649392,5.2910173 C102.603765,4.97977867 101.382882,5.07648647 100.648916,5.80960758 C100.628223,6.11620086 100.367239,6.50556588 100.577125,6.77288481 C98.8921284,9.26068233 96.8152335,11.7096278 94.884456,14.1007175 C91.6424221,17.6362532 88.5959153,21.9247584 84.5417893,24.2643269 C84.388915,24.1431255 84.4252332,23.9733589 84.5042042,23.8120385 C84.2723589,23.2288356 84.5202518,22.4813561 84.6287841,21.9707896 C85.1089447,20.3385816 85.7419795,18.8275751 86.6807631,17.3376838 C86.9295006,17.2126815 86.7225713,16.7236526 87.0806857,16.7109834 C87.5802723,15.6163694 88.3839183,14.7645807 89.0625621,13.6636321 C89.666458,13.1251935 90.2547285,12.4495058 90.682101,11.6952694 C91.2724831,10.7982941 91.821057,9.89202799 91.9621068,8.81008312 C91.0837128,6.66688631 88.6613726,5.92954214 86.7542441,4.85731028 C85.878384,3.9594903 84.9189075,2.82180119 83.4066341,3.0337982 C81.3833718,3.13768517 80.8951875,5.43502323 80.2110537,6.97939185 C77.8537484,10.7476175 75.0977873,14.2970893 72.0563482,17.5196971 C69.3329046,20.4982128 65.9329287,23.7330675 61.9429931,24.9307239 C61.2926437,25.0595269 60.8610482,24.7896741 60.7322452,24.139747 C60.8036148,23.1764698 61.8509306,22.6435211 62.3543179,21.9496744 C63.6275669,20.3525177 64.873366,18.8833193 65.9857168,17.2076139 C67.0744186,16.0602118 67.5550014,14.4284261 68.6525716,13.2387935 C68.7150727,12.3177467 69.7412733,12.0913913 69.6943975,11.0588561 C70.4342755,10.5043699 70.2286131,9.17115372 70.7991468,8.58077162 C71.093071,8.24335009 71.1437475,7.58666614 71.4803245,7.25811301 C71.5605624,6.25260531 72.0149623,5.37083291 72.1623467,4.46836757 C72.1923303,4.1186992 72.1792389,3.76016243 72.3950366,3.58363903 C72.5339749,3.34630374 72.3059303,3.16471268 72.256943,2.97636474 C72.4131957,2.03124662 71.8321044,1.41848237 71.4148672,0.662556796 C70.9465312,0.56331517 70.5512539,0.123273579 70.0351975,0.458161278 C69.4743767,-0.461196251 68.4583114,0.345405899 67.7285687,0.0126297236 C67.723501,0.456472058 67.0697732,0.184085469 67.1069361,0.636373899 C64.9536039,3.02492979 62.876709,5.47387527 61.1646853,8.08920884 C58.9104224,11.790288 56.5814115,16.0534549 57.190375,20.7190782 C55.246506,22.7512089 52.8072735,24.8120562 50.4765734,26.3623371 C47.7425722,28.1381288 44.5773978,30.2665449 41.2310546,31.1563411 C39.7580555,31.5993388 38.4138594,30.6022772 37.6587784,29.5520052 C38.3627605,29.1681302 39.2373537,28.820151 40.0355098,28.4117823 C40.8328212,27.3809363 42.2939958,27.2023014 42.9996671,25.9733944 C44.2560238,25.0844428 45.1589115,23.7643181 46.4178021,22.6536565 C48.4009454,20.2287824 50.2768232,17.4702875 51.5509168,14.4060439 C52.2663011,13.757806 52.2464528,12.5973125 52.8102297,11.8278732 C52.9859085,11.420349 53.066991,11.0373186 53.2671635,10.7243907 C53.5682668,9.09851729 54.5682845,7.53218882 53.9306043,5.92911984 C53.1539858,4.56338615 51.5344469,4.44134006 50.0449779,4.12503377 C46.0938943,4.93036901 43.1525414,8.30754042 40.5752153,11.2282004 C39.972164,10.2995521 39.21835,9.87217967 38.345446,9.37554923 C38.21242,9.79194176 37.9197628,9.28517601 37.5950104,9.34936634 C36.3365421,8.99294109 36.5797897,10.7788681 36.1857793,11.5850479 C32.9534584,17.1679172 28.7608165,22.457707 24.097727,26.4024561 C23.2725434,26.9387832 22.5449123,27.8513838 21.359925,27.7770582 C20.8611831,27.4045854 21.0997853,26.6997587 20.8924336,26.2103074 C21.0660009,24.5574065 21.1052752,22.6984208 21.8654238,21.2144417 C22.9051382,17.7891276 24.521721,14.5753881 25.4579707,11.2167981 C25.6915052,10.9549692 26.0128792,10.4895893 25.6843261,10.1530124 C24.8232466,9.39201912 23.382765,9.26363847 22.3113777,9.70283545 C22.1242967,10.3743001 21.4532544,10.8101186 21.0714908,11.3515133 C14.3678246,17.5754414 11.9746233,27.1609155 4.6894434,32.7720792 C4.24348955,32.9887216 3.49389854,33.585016 3.27387775,32.7374502 C3.42083981,31.8358295 2.83341385,31.0435857 3.16914616,30.092133 C2.96812908,29.7825836 3.37438629,29.3353629 3.14000713,28.97387 C3.58933942,27.068853 3.86341523,25.5705156 4.56824193,23.7191314 C4.84485157,21.999084 6.00576744,20.5117266 6.46185661,18.7853446 C6.78323056,18.3199647 6.52435772,17.8647201 6.95510861,17.5116733 C8.28959174,14.3709926 9.53285705,11.0330955 10.8246874,7.88354641 C10.6794146,6.47431532 12.2119586,5.33240317 11.6139751,3.96033491 C11.357636,3.28338033 10.9496896,2.48522427 10.2444406,2.24619976 C9.45135222,2.21114846 9.23682139,3.01057143 8.82127347,3.50044499 C8.08688544,5.70107525 7.06870859,7.35228698 6.10627598,9.37090388 C3.81780632,14.487971 1.86718049,19.89854 0.494267615,25.521106 C-0.360477281,28.4966655 -0.0940029582,31.8442756 1.19571587,34.5643408 C1.94530688,36.0576105 3.84736765,36.1061756 5.31192067,36.3283079 C6.83390713,36.0740804 8.40572556,35.163169 9.37575966,33.9460866 C10.4893774,32.8932807 11.279932,31.6825329 12.3686337,30.5359754 C12.2917742,29.8522639 13.060369,29.7931412 13.1777697,29.239922 C14.2550692,28.357305 14.4168119,26.9687668 15.3750215,26.0160472 C15.9417545,25.0248979 16.660095,24.15495 17.3877262,23.2423493 C17.5009038,23.7554497 17.2893291,24.3331626 17.5059715,24.7791165 C17.4316458,25.9641037 17.9468577,27.0967252 18.2585186,28.1410849 C18.7027833,30.2365613 21.1796009,30.718411 23.0694148,31.0309166 C25.7062859,30.9692601 27.371856,29.4113777 29.1041503,27.9561154 C30.0070379,26.6359906 31.0108564,25.4708517 31.9475284,24.2026704 C32.4597841,23.4665932 33.1114004,22.4931806 33.6544844,22.0303346 L32.6717811,24.9788666 C32.6933187,25.2947506 32.8934911,24.9818228 33.0366525,25.1452547 C32.2097797,28.6161778 31.0763136,32.0664079 30.3347464,35.5550678 C28.4423987,41.1121765 27.7679779,46.7942875 26.2041833,52.6871286 C26.1497059,52.9422006 26.5057089,53.1512415 26.3144048,53.4223612 C26.7421996,54.7581112 27.7460181,55.6829587 28.7168968,56.5567073 C29.0724774,56.7653259 29.0154663,57.2425303 29.4926707,57.2995415 C29.7506989,57.1318865 29.695377,56.7644813 29.8013755,56.4756248 C30.9606021,55.8324546 30.2595762,54.5275328 30.4432788,53.4548787 C31.0860266,48.9666233 32.2241381,44.4504959 33.3525365,39.9761767 C34.2892085,36.618009 35.0886314,33.2746219 36.210273,30.0891769 C36.4112901,30.398304 36.6819874,30.5900304 36.8226149,30.9755947 C38.216643,32.7839038 40.7411811,34.2982888 43.2555838,33.7657624 C49.4115207,32.6284956 54.0357582,29.0756454 58.8905741,25.4826763 L60.7339345,26.8530553 C64.1976784,28.9679577 67.8784869,26.5038092 70.5977075,24.5911908 C71.9748434,23.5502095 73.6260551,22.4779777 74.7781026,21.033273 C75.9309947,20.2110456 76.2692608,19.0378828 77.330935,18.0180168 C78.0252041,17.0538949 78.73721,16.0044675 79.4226107,15.0829985 C79.5100278,14.8794476 79.3335044,14.6640721 79.6400976,14.6847651 C79.9580931,13.8186179 80.5797258,13.1944515 80.9644455,12.4313467 C81.3373406,11.9326047 81.7980751,11.2298896 81.7697807,10.7349484 C82.2609212,10.3054644 82.5518892,9.5668533 82.8753746,8.87976341 C83.2976794,8.56936939 83.4146578,8.01615011 83.7271634,7.59342302 C84.2909403,6.82398369 84.0527604,6.06172354 84.7592763,5.45613847 C85.7609833,6.60269598 87.3598292,7.03133534 88.6981131,7.84933972 C86.8885371,10.7112993 84.4015841,13.206276 82.7782445,16.2409582 C82.1971531,17.7186027 81.1304112,19.1814665 81.2389436,20.7613087 C80.8149496,23.3838214 81.6844751,25.569671 83.6621285,27.1461348 C87.4235972,29.3239606 90.3459464,25.4091952 92.8700621,23.3669292 C92.7116978,25.1562346 94.0508263,26.5971386 95.4718819,27.6550121 C97.0986,28.579015 98.8591886,27.6191162 100.267575,26.8513661 C100.630757,26.3952769 101.117252,26.409213 101.447495,25.9016026 C101.97242,25.5236398 102.351649,25.2043774 102.876996,24.8268369 C104.353796,23.3175196 105.894786,22.133377 107.11947,20.3478723 C107.598786,20.1827511 107.685781,19.3563007 108.205638,19.4226025 C108.079791,20.6409518 108.023625,21.7406335 108.223375,22.8947925 C108.02278,24.6756518 109.610646,25.9915535 110.673165,27.0620962 C111.508062,27.1064382 112.093376,28.1199697 113.128445,27.8505392 C114.45955,27.8665868 115.484906,27.0177542 116.56854,26.3141944 C116.582898,25.8281216 117.05039,25.9273632 117.207909,25.6051446 C119.440635,23.6781679 120.980358,21.2482261 122.510791,18.8613594 C124.205078,18.4208955 125.789987,17.8685209 127.317042,17.1700288 C127.99653,16.6919797 129.056515,16.5171455 129.526118,15.7721999 C130.7981,15.0196528 131.543468,14.0217465 132.65413,13.1906507 C133.637255,12.3325274 134.74116,11.321952 135.793966,10.345161 C135.859423,9.82530384 136.567628,9.84261833 136.67616,9.33205184 C136.875911,9.01870169 137.136895,8.62933667 137.489097,8.43718799 C137.834542,8.06640438 138.25009,7.57610852 138.78135,7.37804758 C138.968431,6.70616065 139.791503,6.39196589 140.224787,5.81720907 L141.713412,7.6010245 C139.436344,10.3633201 136.645332,12.6158939 135.791009,16.214353 C135.037195,19.3448984 135.704437,22.6887078 138.421124,24.5552949 C139.336258,25.0616384 140.30038,25.7550628 141.415687,25.9480561 C147.216466,26.6917349 152.087751,23.858492 156.439602,20.9589473 L156.484367,20.7461057 C157.031251,20.6844492 157.404146,20.1857073 157.764795,19.9513281 L157.679911,19.933169 C157.604319,19.8727794 157.673999,19.7541118 157.692158,19.6688062 C158.10475,19.4006427 158.367846,18.7899899 158.82309,18.5306948 C159.223013,17.9044168 159.96078,17.5720629 160.32734,16.8938414 C160.144482,16.4994087 160.709104,16.3524467 160.517377,16.0006668 C160.806234,16.106243 160.817636,15.8418802 161.057505,15.7595308 C161.047792,15.179284 162.217154,15.1167829 161.866641,14.464322 C161.941389,13.901812 162.497564,13.7975027 162.833719,13.4689496 C163.237442,13.2434388 162.909312,12.9068619 163.023756,12.5753526 C163.886103,11.869259 164.536874,10.8958465 165.295334,10.2568993 C165.477769,10.0288547 165.27633,9.71930533 165.610373,9.61246222 C166.805496,8.17620363 168.042004,6.74923574 169.163646,5.03129985 C169.120148,4.39910958 169.827086,3.79352451 170.023458,3.07940711 C169.194896,3.83702191 168.668704,5.05917197 167.855768,5.95403582" id="Fill-49" fill="#000000" mask="url(#mask-2)"></path>
        </g>
        <path d="M39.7252219,60.9578384 L39.8865423,61.0368094 L39.7252219,60.9578384 Z" id="Fill-52" fill="#000000"></path>
        <path d="M39.7561346,61.2316608 C39.3912632,61.0648504 39.1433703,61.8127522 38.872673,61.6218704 C39.0635547,61.3511731 39.3642357,61.1928088 39.655626,61.0766749 C39.6467576,61.1189054 39.7223502,61.1801396 39.7561346,61.2316608" id="Fill-54" fill="#000000"></path>
        <polygon id="Fill-56" fill="#000000" points="38.0473205 62.1579441 38.1503628 62.09122 38.1322037 62.1761032"></polygon>
    </g>
</svg>